<?xml version="1.0" standalone="no"?>
<!DOCTYPE svg PUBLIC "-//W3C//DTD SVG 20010904//EN"
 "http://www.w3.org/TR/2001/REC-SVG-20010904/DTD/svg10.dtd">
<svg version="1.0" xmlns="http://www.w3.org/2000/svg"
 width="700.000000pt" height="700.000000pt" viewBox="0 0 700.000000 700.000000"
 preserveAspectRatio="xMidYMid meet">
<metadata>
Created by potrace 1.14, written by Peter Selinger 2001-2017
</metadata>
<g transform="translate(0.000000,700.000000) scale(0.100000,-0.100000)"
fill="#000000" stroke="none">
<path d="M85 6977 c-22 -13 -49 -40 -62 -62 l-23 -40 0 -3375 0 -3375 23 -40
c13 -22 40 -49 62 -62 l40 -23 3375 0 3375 0 40 23 c22 13 49 40 62 62 l23 40
0 3375 0 3375 -23 40 c-13 22 -40 49 -62 62 l-40 23 -3375 0 -3375 0 -40 -23z
m1245 -417 c29 -17 53 -41 70 -70 l25 -45 5 -1009 5 -1009 296 364 c162 200
524 648 803 994 279 347 536 658 571 691 100 98 75 95 668 92 l507 -3 -567
-700 c-311 -385 -765 -945 -1007 -1245 -242 -300 -505 -624 -585 -719 -232
-278 -252 -310 -235 -384 13 -60 43 -103 275 -387 565 -692 1837 -2268 2001
-2480 l98 -125 -531 -3 c-518 -2 -532 -2 -564 18 -18 11 -46 37 -61 58 -24 32
-1300 1609 -1574 1944 l-95 117 -3 -1065 -2 -1065 -348 3 c-293 3 -352 5 -382
19 -45 21 -88 64 -109 109 -15 32 -16 298 -19 2983 l-2 2948 357 -3 358 -3 45
-25z m3910 -306 c36 -19 114 -71 173 -115 513 -385 767 -890 767 -1527 0 -522
-147 -953 -437 -1285 -196 -223 -491 -410 -843 -532 -225 -78 -245 -96 -199
-174 13 -22 373 -455 799 -962 426 -507 810 -968 854 -1023 l79 -101 -538 -3
c-458 -2 -542 0 -560 12 -21 14 -2475 2949 -2475 2961 0 3 313 5 695 5 429 0
733 4 792 11 479 53 837 345 950 774 22 86 26 121 27 255 0 136 -3 168 -26
260 -84 330 -262 550 -573 706 -71 36 -140 75 -152 87 -46 42 -30 81 101 241
46 56 130 165 189 243 107 142 152 187 204 203 43 13 102 1 173 -36z"/>
</g>
</svg>
